<svg xmlns="http://www.w3.org/2000/svg" viewBox="0 0 24 24" fill="#ff3e00">
  <path d="M12 1.5C6.201 1.5 1.5 6.201 1.5 12S6.201 22.5 12 22.5 22.5 17.799 22.5 12 17.799 1.5 12 1.5zM12 21c-4.963 0-9-4.037-9-9s4.037-9 9-9 9 4.037 9 9-4.037 9-9 9z"/>
  <path d="M12 3C7.029 3 3 7.029 3 12s4.029 9 9 9 9-4.029 9-9-4.029-9-9-9zm0 16c-3.866 0-7-3.134-7-7s3.134-7 7-7 7 3.134 7 7-3.134 7-7 7z"/>
  <path d="M12 5c-3.866 0-7 3.134-7 7s3.134 7 7 7 7-3.134 7-7-3.134-7-7-7zm0 12c-2.761 0-5-2.239-5-5s2.239-5 5-5 5 2.239 5 5-2.239 5-5 5z"/>
  <circle cx="12" cy="12" r="2" fill="white"/>
</svg>
